<svg id="Layer_1" data-name="Layer 1" xmlns="http://www.w3.org/2000/svg" viewBox="0 0 981 276.5"><defs><style>.cls-1{fill:#fff;}</style></defs><path class="cls-1" d="M274.5,146.3a86.9,86.9,0,0,1,16.1,50.3c0,53.7-33.4,85.1-87.8,85.1H11V13.3H202.8c54.4,0,87.8,31,87.8,84.7A81.7,81.7,0,0,1,274.5,146.3ZM100.7,83.4v29.2h89c8.4,0,14.6-5.8,14.6-15s-6.2-14.2-14.6-14.2ZM204.3,196.6c0-9.2-6.2-14.6-14.6-14.6h-89v29.5h89C198.1,211.5,204.3,205.8,204.3,196.6Z" transform="translate(-11 -9)"/><path class="cls-1" d="M323.2,13.3h89.7V281.7H323.2Z" transform="translate(-11 -9)"/><path class="cls-1" d="M443.6,147.1C443.6,70.8,505.7,9,582,9S720.5,70.8,720.5,147.1a138.5,138.5,0,0,1-276.9,0Zm187.9,0A49.5,49.5,0,1,0,582,196.9,49.6,49.6,0,0,0,631.5,147.1Z" transform="translate(-11 -9)"/><path class="cls-1" d="M744.6,210.8h140c11.9,0,17.7-5.4,17.7-14.2s-5.8-13.8-18.1-13.8H820.6c-44.9,0-81.3-30.7-81.3-84.8,0-62.1,42.5-84.7,85.5-84.7H983.6V84.2H846.7C836.3,84.2,829,88,829,97.6s7.3,14.2,17.7,14.2h59.8c51.4,0,85.5,30.3,85.5,84.4,0,51-38.3,85.5-88.2,85.5H743.5Z" transform="translate(-11 -9)"/></svg>