<?xml version="1.0" encoding="utf-8"?>
<!-- Generator: Adobe Illustrator 25.0.1, SVG Export Plug-In . SVG Version: 6.00 Build 0)  -->
<svg version="1.1" id="Layer_1" xmlns="http://www.w3.org/2000/svg" xmlns:xlink="http://www.w3.org/1999/xlink" x="0px" y="0px"
	 viewBox="0 0 1000 292" style="enable-background:new 0 0 1000 292;" xml:space="preserve">
<g>
	<path d="M274.47,146.33c9.97,13.81,16.11,31.45,16.11,50.24c0,53.69-33.36,85.14-87.82,85.14H11V13.25h191.75
		c54.46,0,87.82,31.06,87.82,84.75C290.57,116.03,284.44,132.9,274.47,146.33z M100.74,83.43v29.15h88.97
		c8.44,0,14.57-5.75,14.57-14.96c0-9.2-6.14-14.19-14.57-14.19H100.74z M204.28,196.57c0-9.2-6.14-14.57-14.57-14.57h-88.97v29.53
		h88.97C198.15,211.52,204.28,205.77,204.28,196.57z"/>
	<path d="M323.17,13.25h89.74V281.7h-89.74V13.25z"/>
	<path d="M443.59,147.09c0-76.32,62.13-138.06,138.44-138.06c76.32,0,138.44,61.74,138.44,138.06c0,76.7-62.13,138.44-138.44,138.44
		C505.72,285.54,443.59,223.8,443.59,147.09z M631.51,147.09c0-27.23-22.24-49.47-49.47-49.47c-27.23,0-49.47,22.24-49.47,49.47
		c0,27.61,22.24,49.86,49.47,49.86C609.26,196.95,631.51,174.71,631.51,147.09z"/>
	<path d="M744.64,210.76h139.98c11.89,0,17.64-5.37,17.64-14.19c0-8.44-5.75-13.81-18.02-13.81h-63.66
		c-44.87,0-81.3-30.68-81.3-84.75c0-62.13,42.57-84.75,85.52-84.75h158.77V84.2H846.65c-10.35,0-17.64,3.83-17.64,13.42
		c0,9.97,7.29,14.19,17.64,14.19h59.83c51.39,0,85.52,30.3,85.52,84.37c0,51.01-38.35,85.52-88.21,85.52h-160.3L744.64,210.76z"/>
</g>
</svg>
