<svg id="Layer_1" data-name="Layer 1" xmlns="http://www.w3.org/2000/svg" viewBox="0 0 981 276.51"><defs><style>.cls-1{fill:#fff;}</style></defs><path class="cls-1" d="M274.47,146.33a86.23,86.23,0,0,1,16.1,50.24c0,53.69-33.36,85.13-87.82,85.13H11V13.25H202.75c54.46,0,87.82,31.07,87.82,84.76A81.28,81.28,0,0,1,274.47,146.33ZM100.74,83.43v29.15h89c8.44,0,14.57-5.75,14.57-15s-6.13-14.19-14.57-14.19ZM204.28,196.57c0-9.21-6.13-14.58-14.57-14.58h-89v29.53h89C198.15,211.52,204.28,205.77,204.28,196.57Z" transform="translate(-11 -9.03)"/><path class="cls-1" d="M323.17,13.25h89.74V281.7H323.17Z" transform="translate(-11 -9.03)"/><path class="cls-1" d="M443.59,147.09C443.59,70.78,505.72,9,582,9S720.48,70.78,720.48,147.09a138.45,138.45,0,1,1-276.89,0Zm187.92,0A49.48,49.48,0,1,0,582,197,49.6,49.6,0,0,0,631.51,147.09Z" transform="translate(-11 -9.03)"/><path class="cls-1" d="M744.64,210.76h140c11.89,0,17.64-5.37,17.64-14.19,0-8.44-5.75-13.81-18-13.81H820.58c-44.88,0-81.31-30.68-81.31-84.75,0-62.13,42.57-84.76,85.52-84.76H983.56v71H846.65C836.3,84.2,829,88,829,97.62c0,10,7.29,14.19,17.64,14.19h59.83c51.39,0,85.52,30.3,85.52,84.37,0,51-38.35,85.52-88.2,85.52H743.49Z" transform="translate(-11 -9.03)"/></svg>